<svg height="512" viewBox="0 0 512 512" width="512" xmlns="http://www.w3.org/2000/svg"><g id="Filled_outline" data-name="Filled outline"><rect fill="#86b63b" height="304" rx="32" width="432" x="24" y="104"/><path d="m424 408h-368a32 32 0 0 1 -32-32v-16h432v16a32 32 0 0 1 -32 32z" fill="#dfdfdd"/><path d="m304 488h-128l16.8-56 7.2-24h80l7.2 24z" fill="#d8d8d6"/><path d="m152 480h176v16h-176z" fill="#dfdfdd"/><path d="m287.2 432h-94.4l7.2-24h80z" fill="#cececc"/><g fill="#c6dc3a"><path d="m96 256h48v72h-48z"/><path d="m176 200h48v128h-48z"/><path d="m256 144h48v184h-48z"/><path d="m384 328h-48v-256h-24l48-48 48 48h-24z"/></g><path d="m460.686 483.314-74.509-74.514 22.623-22.623 74.51 74.509a16 16 0 0 1 4.69 11.314 16 16 0 0 1 -16 16 16 16 0 0 1 -11.314-4.686z" fill="#2e4f78"/><circle cx="368" cy="368" fill="#375e8d" r="88"/><circle cx="368" cy="368" fill="#fcab1e" r="56"/><circle cx="368" cy="368" fill="#ffb431" r="40"/><path d="m32 168h-16v-32a40.045 40.045 0 0 1 40-40h272v-16h-16a8 8 0 0 1 -5.657-13.657l48-48a8 8 0 0 1 11.314 0l48 48a8 8 0 0 1 -5.657 13.657h-16v16h32a40.045 40.045 0 0 1 40 40v160h-16v-160a24.028 24.028 0 0 0 -24-24h-32v144h-16v-184a8 8 0 0 1 8-8h4.687l-28.687-28.687-28.687 28.687h4.687a8 8 0 0 1 8 8v192h-16v-152h-272a24.028 24.028 0 0 0 -24 24zm24 248h133.247l-19.2 64h-18.047v16h176v-16h-18.047l-10.29-34.3-15.326 4.6 8.911 29.7h-106.5l19.2-64h58.052v-16h-208a24.028 24.028 0 0 1 -24-24v-8h224v-16h-224v-168h-16v192a40.045 40.045 0 0 0 40 40zm240-136v-128h-32v184h-208v-16h32v-64a8 8 0 0 1 8-8h48a8 8 0 0 1 8 8v64h16v-120a8 8 0 0 1 8-8h48a8 8 0 0 1 8 8v120h16v-176a8 8 0 0 1 8-8h48a8 8 0 0 1 8 8v136zm-160-16h-32v56h32zm80-56h-32v112h32zm-160-80v16h16v-16zm48 0h-16v16h16zm16 0v16h16v-16zm368.967 327.033a24.167 24.167 0 0 1 7.033 16.967 23.978 23.978 0 0 1 -24 24 24.5 24.5 0 0 1 -16.967-7.033l-38.293-38.292a96.074 96.074 0 1 1 33.935-33.935zm-40.967-87.033a80 80 0 1 0 -80 80 80.091 80.091 0 0 0 80-80zm29.652 98.348-36.387-36.389a96.887 96.887 0 0 1 -11.306 11.306l36.389 36.387a7.993 7.993 0 1 0 11.3-11.3zm-45.652-98.348a64 64 0 1 1 -64-64 64.072 64.072 0 0 1 64 64zm-16 0a48 48 0 1 0 -48 48 48.053 48.053 0 0 0 48-48zm-80 0h16a16.019 16.019 0 0 1 16-16v-16a32.036 32.036 0 0 0 -32 32zm104-304h16a48.053 48.053 0 0 0 -48-48v16a32.036 32.036 0 0 1 32 32z"/></g></svg>